<?xml version="1.0" encoding="utf-8"?>
<!-- Generator: Adobe Illustrator 27.7.0, SVG Export Plug-In . SVG Version: 6.00 Build 0)  -->
<svg version="1.1" id="Ebene_1" xmlns="http://www.w3.org/2000/svg" xmlns:xlink="http://www.w3.org/1999/xlink" x="0px" y="0px"
	 viewBox="0 0 55.4176064 48" enable-background="new 0 0 55.4176064 48" xml:space="preserve">
<polygon fill="#FFFFFF" points="14.1668282,0.8953341 40.9957695,0.8953341 54.3668251,24.4496098 40.1028748,47.1730843 
	15.09272,47.1730843 1.664021,23.990797 "/>
<linearGradient id="SVGID_1_" gradientUnits="userSpaceOnUse" x1="37.0427437" y1="0.5908868" x2="18.3745384" y2="51.8813553" gradientTransform="matrix(1 0 0 -1 0 50.2362366)">
	<stop  offset="0.15" style="stop-color:#33B0C1"/>
	<stop  offset="0.65" style="stop-color:#EDF82D"/>
	<stop  offset="1" style="stop-color:#D40074"/>
</linearGradient>
<path fill="url(#SVGID_1_)" d="M41.5632591,0.0000144H13.8545656L0,24.0005627l13.8545656,23.9994526h27.7086945
	l13.8543472-23.9994526L41.5632591,0.0000144z M40.1578903,45.5647163H15.2599335L2.8109539,24.0005627L15.2599335,2.4350936
	h24.8979568l12.4489822,21.5654697L40.1578903,45.5647163z"/>
<g>
	<path fill="#1D1D1B" d="M42.654213,25.6691399h-3.3717995l3.2825165-4.7184887V20.013176h-4.9241104v1.2005901h3.1986427
		l-3.2879257,4.7130775V26.86973h5.1026764V25.6691399z M36.5714493,25.6691399h-3.3717995l3.2825127-4.7184887V20.013176H31.558054
		v1.2005901h3.1986408l-3.2879238,4.7130775V26.86973h5.1026783V25.6691399z M30.1504879,20.013176h-1.308136v3.2453136
		c0,0.3686314,0.0229988,0.9990253,0.0703449,1.8898296h-0.0331421l-2.9781399-5.1351433h-1.8336906v6.856554h1.2993431v-3.2270508
		c0-0.3902779-0.0297623-1.0436687-0.0892849-1.9601746h0.0419369l2.9828739,5.1872253h1.8478947V20.013176z M18.6931381,24.018074
		c0.4883518-1.5786915,0.7832584-2.5682487,0.8867455-2.9686699c0.0250263,0.1122799,0.0662861,0.2658195,0.1244564,0.4599438
		c0.0574932,0.1934471,0.3165493,1.0301399,0.7758179,2.5087261H18.6931381z M22.8908081,26.86973l-2.4295902-6.8849621h-1.7768726
		L16.264225,26.86973h1.5665169l0.4971466-1.6321278h2.4992561l0.4971466,1.6321278H22.8908081z M14.5441694,28.257679
		c0.3659258-0.418684,0.5485506-1.0287876,0.5485506-1.8289547V20.013176h-1.4535589v6.4250164
		c0,0.4220676-0.0689917,0.7318535-0.2062988,0.9307117c-0.1379833,0.1988583-0.3659267,0.2976112-0.6851816,0.2976112
		c-0.2062988,0-0.4342422-0.0311146-0.6845055-0.0933418v1.2100601c0.2441759,0.0683155,0.5302887,0.1028099,0.8583374,0.1028099
		C13.6371317,28.8860435,14.1782427,28.676363,14.5441694,28.257679"/>
</g>
</svg>
